<svg width="58" height="59" viewBox="0 0 58 59" fill="none" xmlns="http://www.w3.org/2000/svg">
<path d="M58 28.8201C58.0391 33.8866 56.7436 38.8742 54.2437 43.2813C53.92 43.8538 53.5771 44.4138 53.215 44.9613C53.036 45.2396 52.8035 45.4796 52.531 45.6673C52.2586 45.8551 51.9516 45.9869 51.6278 46.0551C51.304 46.1233 50.9699 46.1265 50.6449 46.0646C50.3198 46.0028 50.0103 45.877 49.7342 45.6945C49.4582 45.5121 49.2211 45.2767 49.0367 45.002C48.8523 44.7272 48.7242 44.4186 48.66 44.094C48.5958 43.7695 48.5966 43.4353 48.6625 43.1111C48.7284 42.7868 48.858 42.4789 49.0437 42.2051C51.4296 38.5834 52.7896 34.3829 52.9791 30.0501C53.1686 25.7173 52.1806 21.4141 50.1201 17.598C48.0595 13.7818 45.0035 10.5952 41.2768 8.377C37.55 6.15878 33.2919 4.99179 28.955 5.00006C20.6187 5.01631 13.2275 9.39256 8.93124 15.9313C6.36295 19.8323 4.99628 24.4014 5.00073 29.0719C5.00517 33.7425 6.38053 38.309 8.95624 42.2051C9.32141 42.7585 9.45175 43.4344 9.3186 44.084C9.18545 44.7336 8.79971 45.3036 8.24624 45.6688C7.69276 46.034 7.0169 46.1643 6.36732 46.0312C5.71774 45.898 5.14766 45.5123 4.78249 44.9588C1.92649 40.6247 0.286028 35.6035 0.0322731 30.4192C-0.221482 25.2349 0.920774 20.0775 3.33985 15.4851C5.75892 10.8928 9.36615 7.03385 13.7851 4.31096C18.2041 1.58808 23.2729 0.101056 28.4625 0.00506158C28.645 0.00131158 28.8262 6.14646e-05 29.0075 6.14646e-05C36.6717 -0.0157253 44.0291 3.01009 49.4648 8.41336C54.9004 13.8166 57.97 21.1558 58 28.8201Z" fill="#494D4B"/>
<path d="M11.5054 33.471L16.0364 56.011C16.3084 57.3641 17.6258 58.2405 18.9789 57.9685C20.332 57.6965 21.2084 56.3791 20.9364 55.026L16.4054 32.486C16.1334 31.1329 14.816 30.2565 13.4629 30.5285C12.1098 30.8005 11.2334 32.1179 11.5054 33.471Z" fill="#04D361"/>
<path d="M15.95 55.5025L14.8012 55.7338C13.0943 56.0774 11.3206 55.756 9.84278 54.8352C8.365 53.9144 7.29486 52.4637 6.85124 50.78C6.81749 50.65 6.78624 50.52 6.75999 50.3875L5.11374 42.2088C4.75699 40.4334 5.11971 38.589 6.1222 37.0809C7.12468 35.5728 8.68491 34.5245 10.46 34.1662L11.6087 33.935L13.6237 43.945L15.95 55.5025Z" fill="#494D4B"/>
<path d="M15.95 55.5025L14.8013 55.7338C13.0943 56.0774 11.3206 55.756 9.8428 54.8352C8.36502 53.9144 7.29488 52.4637 6.85126 50.78C9.27906 48.677 11.5431 46.392 13.6238 43.945L15.95 55.5025Z" fill="#494D4B"/>
<path d="M54.8362 40.34L54.2437 43.2813C53.92 43.8538 53.5771 44.4138 53.215 44.9613C53.036 45.2396 52.8035 45.4795 52.531 45.6673C52.2586 45.855 51.9516 45.9868 51.6278 46.0551C51.304 46.1233 50.9699 46.1265 50.6449 46.0646C50.3198 46.0027 50.0103 45.8769 49.7342 45.6945C49.4582 45.5121 49.2211 45.2767 49.0367 45.002C48.8523 44.7272 48.7242 44.4186 48.66 44.094C48.5958 43.7694 48.5966 43.4353 48.6625 43.1111C48.7284 42.7868 48.8579 42.4788 49.0437 42.205C50.7384 39.6404 51.9213 36.7724 52.5275 33.7588C53.4683 34.547 54.1793 35.5742 54.5856 36.7324C54.9919 37.8905 55.0785 39.1368 54.8362 40.34Z" fill="#494D4B"/>
<path d="M51.8725 11.1275L48.2863 14.7138C46.0517 11.692 43.1376 9.23824 39.7794 7.5508C36.4213 5.86337 32.7133 4.98957 28.955 5.00001C20.6188 5.01626 13.2275 9.39251 8.93126 15.9313L5.29376 12.2938C7.91639 8.56698 11.3815 5.51173 15.4073 3.37641C19.4332 1.24109 23.9061 0.0859862 28.4625 0.0050117C28.645 0.0012617 28.8263 1.15847e-05 29.0075 1.15847e-05C33.4146 -0.00986365 37.7657 0.987551 41.7285 2.91608C45.6913 4.84462 49.161 7.65326 51.8725 11.1275Z" fill="#8257E5"/>
<path d="M41.554 32.4616L37.023 55.0016C36.751 56.3547 37.6274 57.6721 38.9805 57.9441C40.3336 58.2161 41.651 57.3397 41.923 55.9866L46.454 33.4466C46.726 32.0935 45.8496 30.7761 44.4965 30.5041C43.1434 30.2321 41.826 31.1085 41.554 32.4616Z" fill="#04D361"/>
<path d="M52.8862 42.2087L51.24 50.3875C50.8826 52.1628 49.8346 53.7234 48.3266 54.726C46.8186 55.7286 44.974 56.0911 43.1987 55.7337L42.05 55.5025L43.24 49.5937L46.3912 33.935L47.54 34.1662C49.3149 34.5249 50.8752 35.5728 51.8787 37.08C52.0169 37.2878 52.1434 37.5031 52.2575 37.725C52.9708 39.1046 53.1925 40.6861 52.8862 42.2087Z" fill="#494D4B"/>
<path d="M52.8862 42.2087L51.24 50.3875C50.8826 52.1628 49.8346 53.7234 48.3266 54.726C46.8186 55.7286 44.974 56.0911 43.1987 55.7337L42.05 55.5025L43.24 49.5937C46.6645 45.9738 49.6879 41.9944 52.2575 37.725C52.9708 39.1046 53.1925 40.6861 52.8862 42.2087Z" fill="#494D4B"/>
</svg>
